<svg xmlns="http://www.w3.org/2000/svg" xmlns:xlink="http://www.w3.org/1999/xlink" width="400" zoomAndPan="magnify" viewBox="0 0 300 74.999997" height="100" preserveAspectRatio="xMidYMid meet" version="1.0"><defs><g/><clipPath id="8de4386719"><path d="M 22.695312 30 L 31.386719 30 L 31.386719 38.691406 L 22.695312 38.691406 Z M 22.695312 30 " clip-rule="nonzero"/></clipPath></defs><g fill="#ff0000" fill-opacity="1"><g transform="translate(53.38966, 46.722776)"><g><path d="M 1.429688 -3.0625 C 1.429688 -0.203125 3.402344 0 5.507812 0 L 17.683594 0 L 17.683594 -3.84375 L 6.972656 -3.84375 C 6.054688 -3.84375 5.476562 -3.875 5.476562 -4.828125 L 5.476562 -6.222656 L 17.683594 -6.222656 L 17.683594 -13.195312 C 17.683594 -16.050781 15.710938 -16.257812 13.601562 -16.257812 L 5.507812 -16.257812 C 3.402344 -16.257812 1.429688 -16.050781 1.429688 -13.195312 Z M 5.476562 -11.425781 C 5.476562 -12.378906 6.054688 -12.414062 6.972656 -12.414062 L 12.140625 -12.414062 C 13.058594 -12.414062 13.636719 -12.378906 13.636719 -11.425781 L 13.636719 -10.066406 L 5.476562 -10.066406 Z M 5.476562 -11.425781 "/></g></g></g><g fill="#ff0000" fill-opacity="1"><g transform="translate(73.250575, 46.722776)"><g><path d="M 1.597656 -16.257812 L 1.597656 0 L 5.644531 0 L 5.644531 -12.414062 L 13.808594 -12.414062 L 13.808594 0 L 17.855469 0 L 17.855469 -12.414062 L 24.519531 -12.414062 C 25.4375 -12.414062 26.015625 -12.378906 26.015625 -11.425781 L 26.015625 0 L 30.0625 0 L 30.0625 -13.195312 C 30.0625 -16.050781 28.089844 -16.257812 25.980469 -16.257812 Z M 1.597656 -16.257812 "/></g></g></g><g fill="#ff0000" fill-opacity="1"><g transform="translate(105.490447, 46.722776)"><g><path d="M 13.773438 0 C 15.882812 0 17.855469 -0.203125 17.855469 -3.0625 L 17.855469 -13.195312 C 17.855469 -16.050781 15.882812 -16.257812 13.773438 -16.257812 L 5.644531 -16.257812 L 5.644531 -22.683594 L 1.597656 -22.683594 L 1.597656 0 Z M 13.808594 -4.828125 C 13.808594 -3.875 13.230469 -3.84375 12.3125 -3.84375 L 5.644531 -3.84375 L 5.644531 -12.414062 L 12.3125 -12.414062 C 13.230469 -12.414062 13.808594 -12.378906 13.808594 -11.425781 Z M 13.808594 -4.828125 "/></g></g></g><g fill="#ff0000" fill-opacity="1"><g transform="translate(125.521388, 46.722776)"><g><path d="M 1.429688 -3.0625 C 1.429688 -0.203125 3.402344 0 5.507812 0 L 17.683594 0 L 17.683594 -3.84375 L 6.972656 -3.84375 C 6.054688 -3.84375 5.476562 -3.875 5.476562 -4.828125 L 5.476562 -6.222656 L 17.683594 -6.222656 L 17.683594 -13.195312 C 17.683594 -16.050781 15.710938 -16.257812 13.601562 -16.257812 L 5.507812 -16.257812 C 3.402344 -16.257812 1.429688 -16.050781 1.429688 -13.195312 Z M 5.476562 -11.425781 C 5.476562 -12.378906 6.054688 -12.414062 6.972656 -12.414062 L 12.140625 -12.414062 C 13.058594 -12.414062 13.636719 -12.378906 13.636719 -11.425781 L 13.636719 -10.066406 L 5.476562 -10.066406 Z M 5.476562 -11.425781 "/></g></g></g><g fill="#ff0000" fill-opacity="1"><g transform="translate(145.382307, 46.722776)"><g><path d="M 17.683594 0 L 17.683594 -22.683594 L 13.636719 -22.683594 L 13.636719 -16.257812 L 5.507812 -16.257812 C 3.402344 -16.257812 1.429688 -16.050781 1.429688 -13.195312 L 1.429688 -3.0625 C 1.429688 -0.203125 3.402344 0 5.507812 0 Z M 5.476562 -11.425781 C 5.476562 -12.378906 6.054688 -12.414062 6.972656 -12.414062 L 13.636719 -12.414062 L 13.636719 -3.84375 L 6.972656 -3.84375 C 6.054688 -3.84375 5.476562 -3.875 5.476562 -4.828125 Z M 5.476562 -11.425781 "/></g></g></g><g fill="#ff0000" fill-opacity="1"><g transform="translate(165.413256, 46.722776)"><g><path d="M 17.683594 0 L 17.683594 -22.683594 L 13.636719 -22.683594 L 13.636719 -16.257812 L 5.507812 -16.257812 C 3.402344 -16.257812 1.429688 -16.050781 1.429688 -13.195312 L 1.429688 -3.0625 C 1.429688 -0.203125 3.402344 0 5.507812 0 Z M 5.476562 -11.425781 C 5.476562 -12.378906 6.054688 -12.414062 6.972656 -12.414062 L 13.636719 -12.414062 L 13.636719 -3.84375 L 6.972656 -3.84375 C 6.054688 -3.84375 5.476562 -3.875 5.476562 -4.828125 Z M 5.476562 -11.425781 "/></g></g></g><g fill="#ff0000" fill-opacity="1"><g transform="translate(185.444205, 46.722776)"><g><path d="M 1.429688 -3.0625 C 1.429688 -0.203125 3.402344 0 5.507812 0 L 17.683594 0 L 17.683594 -3.84375 L 6.972656 -3.84375 C 6.054688 -3.84375 5.476562 -3.875 5.476562 -4.828125 L 5.476562 -6.222656 L 17.683594 -6.222656 L 17.683594 -13.195312 C 17.683594 -16.050781 15.710938 -16.257812 13.601562 -16.257812 L 5.507812 -16.257812 C 3.402344 -16.257812 1.429688 -16.050781 1.429688 -13.195312 Z M 5.476562 -11.425781 C 5.476562 -12.378906 6.054688 -12.414062 6.972656 -12.414062 L 12.140625 -12.414062 C 13.058594 -12.414062 13.636719 -12.378906 13.636719 -11.425781 L 13.636719 -10.066406 L 5.476562 -10.066406 Z M 5.476562 -11.425781 "/></g></g></g><g fill="#ff0000" fill-opacity="1"><g transform="translate(205.305124, 46.722776)"><g><path d="M 17.683594 0 L 17.683594 -22.683594 L 13.636719 -22.683594 L 13.636719 -16.257812 L 5.507812 -16.257812 C 3.402344 -16.257812 1.429688 -16.050781 1.429688 -13.195312 L 1.429688 -3.0625 C 1.429688 -0.203125 3.402344 0 5.507812 0 Z M 5.476562 -11.425781 C 5.476562 -12.378906 6.054688 -12.414062 6.972656 -12.414062 L 13.636719 -12.414062 L 13.636719 -3.84375 L 6.972656 -3.84375 C 6.054688 -3.84375 5.476562 -3.875 5.476562 -4.828125 Z M 5.476562 -11.425781 "/></g></g></g><g fill="#ff0000" fill-opacity="1"><g transform="translate(225.336073, 46.722776)"><g/></g></g><g fill="#ff0000" fill-opacity="1"><g transform="translate(233.328154, 46.722776)"><g><path d="M 1.597656 -16.257812 L 1.597656 0 L 5.644531 0 L 5.644531 -12.414062 L 13.808594 -12.414062 L 13.808594 0 L 17.855469 0 L 17.855469 -12.414062 L 24.519531 -12.414062 C 25.4375 -12.414062 26.015625 -12.378906 26.015625 -11.425781 L 26.015625 0 L 30.0625 0 L 30.0625 -13.195312 C 30.0625 -16.050781 28.089844 -16.257812 25.980469 -16.257812 Z M 1.597656 -16.257812 "/></g></g></g><g fill="#ff0000" fill-opacity="1"><g transform="translate(265.568028, 46.722776)"><g><path d="M 1.429688 -3.0625 C 1.429688 -0.203125 3.402344 0 5.507812 0 L 17.683594 0 L 17.683594 -3.84375 L 6.972656 -3.84375 C 6.054688 -3.84375 5.476562 -3.875 5.476562 -4.828125 L 5.476562 -6.222656 L 17.683594 -6.222656 L 17.683594 -13.195312 C 17.683594 -16.050781 15.710938 -16.257812 13.601562 -16.257812 L 5.507812 -16.257812 C 3.402344 -16.257812 1.429688 -16.050781 1.429688 -13.195312 Z M 5.476562 -11.425781 C 5.476562 -12.378906 6.054688 -12.414062 6.972656 -12.414062 L 12.140625 -12.414062 C 13.058594 -12.414062 13.636719 -12.378906 13.636719 -11.425781 L 13.636719 -10.066406 L 5.476562 -10.066406 Z M 5.476562 -11.425781 "/></g></g></g><g fill="#ff0000" fill-opacity="1"><g transform="translate(285.428947, 46.722776)"><g><path d="M 5.167969 0 L 5.167969 -3.84375 L 1.121094 -3.84375 L 1.121094 0 Z M 5.167969 0 "/></g></g></g><path fill="#ff0000" d="M 44.460938 20.296875 L 40.316406 16.152344 C 40.023438 15.859375 39.632812 15.703125 39.230469 15.703125 L 10.753906 15.703125 C 9.902344 15.703125 9.21875 16.398438 9.21875 17.238281 L 9.21875 51.472656 C 9.21875 52.324219 9.910156 53.007812 10.753906 53.007812 L 43.375 53.007812 C 44.226562 53.007812 44.910156 52.316406 44.910156 51.472656 L 44.910156 21.382812 C 44.910156 20.980469 44.753906 20.589844 44.460938 20.296875 Z M 34.511719 40.226562 C 34.511719 41.101562 33.796875 41.816406 32.921875 41.816406 L 21.203125 41.816406 C 20.332031 41.816406 19.613281 41.101562 19.613281 40.226562 L 19.613281 28.496094 C 19.613281 27.625 20.332031 26.90625 21.203125 26.90625 L 32.921875 26.90625 C 33.796875 26.90625 34.511719 27.625 34.511719 28.496094 Z M 34.511719 40.226562 " fill-opacity="1" fill-rule="nonzero"/><g clip-path="url(#8de4386719)"><path fill="#ff0000" d="M 22.695312 30 L 31.386719 30 L 31.386719 38.691406 L 22.695312 38.691406 Z M 22.695312 30 " fill-opacity="1" fill-rule="nonzero"/></g><g fill="#000000" fill-opacity="1"><g transform="translate(139.737174, 59.000125)"><g><path d="M 4.4375 -1.324219 C 4.4375 -1.238281 4.363281 -1.164062 4.277344 -1.164062 L 1.753906 -1.164062 C 1.667969 -1.164062 1.59375 -1.238281 1.59375 -1.324219 L 1.59375 -4.511719 C 1.59375 -4.597656 1.667969 -4.671875 1.753906 -4.671875 L 4.277344 -4.671875 C 4.363281 -4.671875 4.4375 -4.597656 4.4375 -4.511719 Z M 5.859375 -8.019531 C 5.859375 -8.105469 5.785156 -8.179688 5.703125 -8.179688 L 4.597656 -8.179688 C 4.511719 -8.179688 4.4375 -8.105469 4.4375 -8.019531 L 4.4375 -5.996094 C 4.4375 -5.910156 4.363281 -5.835938 4.277344 -5.835938 L 1.753906 -5.835938 C 1.667969 -5.835938 1.59375 -5.761719 1.59375 -5.675781 L 1.59375 -5.417969 C 1.59375 -5.332031 1.519531 -5.261719 1.433594 -5.261719 L 1.042969 -5.261719 C 0.957031 -5.261719 0.882812 -5.1875 0.882812 -5.101562 L 0.882812 -4.832031 C 0.882812 -4.746094 0.808594 -4.671875 0.722656 -4.671875 L 0.332031 -4.671875 C 0.246094 -4.671875 0.171875 -4.597656 0.171875 -4.511719 L 0.171875 -1.324219 C 0.171875 -1.238281 0.246094 -1.164062 0.332031 -1.164062 L 0.722656 -1.164062 C 0.808594 -1.164062 0.882812 -1.089844 0.882812 -1.003906 L 0.882812 -0.746094 C 0.882812 -0.660156 0.957031 -0.589844 1.042969 -0.589844 L 1.433594 -0.589844 C 1.519531 -0.589844 1.59375 -0.515625 1.59375 -0.429688 L 1.59375 -0.160156 C 1.59375 -0.0742188 1.667969 0 1.753906 0 L 4.277344 0 C 4.363281 0 4.4375 -0.0742188 4.4375 -0.160156 L 4.4375 -0.429688 C 4.4375 -0.515625 4.511719 -0.589844 4.597656 -0.589844 L 4.988281 -0.589844 C 5.074219 -0.589844 5.148438 -0.660156 5.148438 -0.746094 L 5.148438 -1.003906 C 5.148438 -1.089844 5.222656 -1.164062 5.308594 -1.164062 L 5.703125 -1.164062 C 5.785156 -1.164062 5.859375 -1.238281 5.859375 -1.324219 Z M 5.859375 -8.019531 "/></g></g></g><g fill="#000000" fill-opacity="1"><g transform="translate(146.035503, 59.000125)"><g><path d="M 0.171875 -7.171875 C 0.171875 -7.085938 0.246094 -7.011719 0.332031 -7.011719 L 1.433594 -7.011719 C 1.519531 -7.011719 1.59375 -7.085938 1.59375 -7.171875 L 1.59375 -8.019531 C 1.59375 -8.105469 1.519531 -8.179688 1.433594 -8.179688 L 0.332031 -8.179688 C 0.246094 -8.179688 0.171875 -8.105469 0.171875 -8.019531 Z M 4.277344 0 C 4.363281 0 4.4375 -0.0742188 4.4375 -0.160156 L 4.4375 -1.003906 C 4.4375 -1.089844 4.363281 -1.164062 4.277344 -1.164062 L 1.753906 -1.164062 C 1.667969 -1.164062 1.59375 -1.238281 1.59375 -1.324219 L 1.59375 -5.675781 C 1.59375 -5.761719 1.519531 -5.835938 1.433594 -5.835938 L 0.332031 -5.835938 C 0.246094 -5.835938 0.171875 -5.761719 0.171875 -5.675781 L 0.171875 -1.324219 C 0.171875 -1.238281 0.246094 -1.164062 0.332031 -1.164062 L 0.722656 -1.164062 C 0.808594 -1.164062 0.882812 -1.089844 0.882812 -1.003906 L 0.882812 -0.746094 C 0.882812 -0.660156 0.957031 -0.589844 1.042969 -0.589844 L 1.433594 -0.589844 C 1.519531 -0.589844 1.59375 -0.515625 1.59375 -0.429688 L 1.59375 -0.160156 C 1.59375 -0.0742188 1.667969 0 1.753906 0 Z M 4.277344 0 "/></g></g></g><g fill="#000000" fill-opacity="1"><g transform="translate(150.912485, 59.000125)"><g><path d="M 4.277344 0 C 4.363281 0 4.4375 -0.0742188 4.4375 -0.160156 L 4.4375 -0.429688 C 4.4375 -0.515625 4.511719 -0.589844 4.597656 -0.589844 L 4.988281 -0.589844 C 5.074219 -0.589844 5.148438 -0.660156 5.148438 -0.746094 L 5.148438 -1.003906 C 5.148438 -1.089844 5.222656 -1.164062 5.308594 -1.164062 L 5.703125 -1.164062 C 5.785156 -1.164062 5.859375 -1.238281 5.859375 -1.324219 L 5.859375 -4.511719 C 5.859375 -4.597656 5.785156 -4.671875 5.703125 -4.671875 L 5.308594 -4.671875 C 5.222656 -4.671875 5.148438 -4.746094 5.148438 -4.832031 L 5.148438 -5.101562 C 5.148438 -5.1875 5.074219 -5.261719 4.988281 -5.261719 L 4.597656 -5.261719 C 4.511719 -5.261719 4.4375 -5.332031 4.4375 -5.417969 L 4.4375 -5.675781 C 4.4375 -5.761719 4.363281 -5.835938 4.277344 -5.835938 L 1.753906 -5.835938 C 1.667969 -5.835938 1.59375 -5.910156 1.59375 -5.996094 L 1.59375 -8.019531 C 1.59375 -8.105469 1.519531 -8.179688 1.433594 -8.179688 L 0.332031 -8.179688 C 0.246094 -8.179688 0.171875 -8.105469 0.171875 -8.019531 L 0.171875 -5.996094 C 0.171875 -5.910156 0.246094 -5.835938 0.332031 -5.835938 L 0.722656 -5.835938 C 0.808594 -5.835938 0.882812 -5.761719 0.882812 -5.675781 L 0.882812 -5.417969 C 0.882812 -5.332031 0.957031 -5.261719 1.042969 -5.261719 L 1.433594 -5.261719 C 1.519531 -5.261719 1.59375 -5.1875 1.59375 -5.101562 L 1.59375 -4.832031 C 1.59375 -4.746094 1.667969 -4.671875 1.753906 -4.671875 L 4.277344 -4.671875 C 4.363281 -4.671875 4.4375 -4.597656 4.4375 -4.511719 L 4.4375 -1.324219 C 4.4375 -1.238281 4.363281 -1.164062 4.277344 -1.164062 L 0.332031 -1.164062 C 0.246094 -1.164062 0.171875 -1.089844 0.171875 -1.003906 L 0.171875 -0.160156 C 0.171875 -0.0742188 0.246094 0 0.332031 0 Z M 4.277344 0 "/></g></g></g><g fill="#000000" fill-opacity="1"><g transform="translate(157.210814, 59.000125)"><g><path d="M 1.753906 0 L 5.703125 0 C 5.785156 0 5.859375 -0.0742188 5.859375 -0.160156 L 5.859375 -1.003906 C 5.859375 -1.089844 5.785156 -1.164062 5.703125 -1.164062 L 1.753906 -1.164062 C 1.667969 -1.164062 1.59375 -1.238281 1.59375 -1.324219 L 1.59375 -4.511719 C 1.59375 -4.597656 1.667969 -4.671875 1.753906 -4.671875 L 5.703125 -4.671875 C 5.785156 -4.671875 5.859375 -4.746094 5.859375 -4.832031 L 5.859375 -5.675781 C 5.859375 -5.761719 5.785156 -5.835938 5.703125 -5.835938 L 1.753906 -5.835938 C 1.667969 -5.835938 1.59375 -5.761719 1.59375 -5.675781 L 1.59375 -5.417969 C 1.59375 -5.332031 1.519531 -5.261719 1.433594 -5.261719 L 1.042969 -5.261719 C 0.957031 -5.261719 0.882812 -5.1875 0.882812 -5.101562 L 0.882812 -4.832031 C 0.882812 -4.746094 0.808594 -4.671875 0.722656 -4.671875 L 0.332031 -4.671875 C 0.246094 -4.671875 0.171875 -4.597656 0.171875 -4.511719 L 0.171875 -1.324219 C 0.171875 -1.238281 0.246094 -1.164062 0.332031 -1.164062 L 0.722656 -1.164062 C 0.808594 -1.164062 0.882812 -1.089844 0.882812 -1.003906 L 0.882812 -0.746094 C 0.882812 -0.660156 0.957031 -0.589844 1.042969 -0.589844 L 1.433594 -0.589844 C 1.519531 -0.589844 1.59375 -0.515625 1.59375 -0.429688 L 1.59375 -0.160156 C 1.59375 -0.0742188 1.667969 0 1.753906 0 Z M 1.753906 0 "/></g></g></g><g fill="#000000" fill-opacity="1"><g transform="translate(163.509143, 59.000125)"><g><path d="M 1.753906 0 L 4.277344 0 C 4.363281 0 4.4375 -0.0742188 4.4375 -0.160156 L 4.4375 -0.429688 C 4.4375 -0.515625 4.511719 -0.589844 4.597656 -0.589844 L 4.988281 -0.589844 C 5.074219 -0.589844 5.148438 -0.660156 5.148438 -0.746094 L 5.148438 -1.003906 C 5.148438 -1.089844 5.222656 -1.164062 5.308594 -1.164062 L 5.703125 -1.164062 C 5.785156 -1.164062 5.859375 -1.238281 5.859375 -1.324219 L 5.859375 -4.511719 C 5.859375 -4.597656 5.785156 -4.671875 5.703125 -4.671875 L 5.308594 -4.671875 C 5.222656 -4.671875 5.148438 -4.746094 5.148438 -4.832031 L 5.148438 -5.101562 C 5.148438 -5.1875 5.074219 -5.261719 4.988281 -5.261719 L 4.597656 -5.261719 C 4.511719 -5.261719 4.4375 -5.332031 4.4375 -5.417969 L 4.4375 -5.675781 C 4.4375 -5.761719 4.363281 -5.835938 4.277344 -5.835938 L 1.753906 -5.835938 C 1.667969 -5.835938 1.59375 -5.761719 1.59375 -5.675781 L 1.59375 -5.417969 C 1.59375 -5.332031 1.519531 -5.261719 1.433594 -5.261719 L 1.042969 -5.261719 C 0.957031 -5.261719 0.882812 -5.1875 0.882812 -5.101562 L 0.882812 -4.832031 C 0.882812 -4.746094 0.808594 -4.671875 0.722656 -4.671875 L 0.332031 -4.671875 C 0.246094 -4.671875 0.171875 -4.597656 0.171875 -4.511719 L 0.171875 -1.324219 C 0.171875 -1.238281 0.246094 -1.164062 0.332031 -1.164062 L 0.722656 -1.164062 C 0.808594 -1.164062 0.882812 -1.089844 0.882812 -1.003906 L 0.882812 -0.746094 C 0.882812 -0.660156 0.957031 -0.589844 1.042969 -0.589844 L 1.433594 -0.589844 C 1.519531 -0.589844 1.59375 -0.515625 1.59375 -0.429688 L 1.59375 -0.160156 C 1.59375 -0.0742188 1.667969 0 1.753906 0 Z M 1.59375 -4.511719 C 1.59375 -4.597656 1.667969 -4.671875 1.753906 -4.671875 L 4.277344 -4.671875 C 4.363281 -4.671875 4.4375 -4.597656 4.4375 -4.511719 L 4.4375 -1.324219 C 4.4375 -1.238281 4.363281 -1.164062 4.277344 -1.164062 L 1.753906 -1.164062 C 1.667969 -1.164062 1.59375 -1.238281 1.59375 -1.324219 Z M 1.59375 -4.511719 "/></g></g></g><g fill="#000000" fill-opacity="1"><g transform="translate(169.807471, 59.000125)"><g><path d="M 0.171875 -1.324219 C 0.171875 -1.238281 0.246094 -1.164062 0.332031 -1.164062 L 0.722656 -1.164062 C 0.808594 -1.164062 0.882812 -1.089844 0.882812 -1.003906 L 0.882812 -0.746094 C 0.882812 -0.660156 0.957031 -0.589844 1.042969 -0.589844 L 1.433594 -0.589844 C 1.519531 -0.589844 1.59375 -0.515625 1.59375 -0.429688 L 1.59375 -0.160156 C 1.59375 -0.0742188 1.667969 0 1.753906 0 L 4.277344 0 C 4.363281 0 4.4375 -0.0742188 4.4375 -0.160156 L 4.4375 -0.429688 C 4.4375 -0.515625 4.511719 -0.589844 4.597656 -0.589844 L 4.988281 -0.589844 C 5.074219 -0.589844 5.148438 -0.660156 5.148438 -0.746094 L 5.148438 -1.003906 C 5.148438 -1.089844 5.222656 -1.164062 5.308594 -1.164062 L 5.703125 -1.164062 C 5.785156 -1.164062 5.859375 -1.238281 5.859375 -1.324219 L 5.859375 -8.019531 C 5.859375 -8.105469 5.785156 -8.179688 5.703125 -8.179688 L 4.597656 -8.179688 C 4.511719 -8.179688 4.4375 -8.105469 4.4375 -8.019531 L 4.4375 -1.324219 C 4.4375 -1.238281 4.363281 -1.164062 4.277344 -1.164062 L 1.753906 -1.164062 C 1.667969 -1.164062 1.59375 -1.238281 1.59375 -1.324219 L 1.59375 -5.675781 C 1.59375 -5.761719 1.519531 -5.835938 1.433594 -5.835938 L 0.332031 -5.835938 C 0.246094 -5.835938 0.171875 -5.761719 0.171875 -5.675781 Z M 0.171875 -1.324219 "/></g></g></g><g fill="#000000" fill-opacity="1"><g transform="translate(176.105801, 59.000125)"><g><path d="M 5.703125 -2.328125 C 5.785156 -2.328125 5.859375 -2.402344 5.859375 -2.488281 L 5.859375 -3.335938 C 5.859375 -3.421875 5.785156 -3.496094 5.703125 -3.496094 L 1.753906 -3.496094 C 1.667969 -3.496094 1.59375 -3.566406 1.59375 -3.652344 L 1.59375 -4.511719 C 1.59375 -4.597656 1.667969 -4.671875 1.753906 -4.671875 L 5.703125 -4.671875 C 5.785156 -4.671875 5.859375 -4.746094 5.859375 -4.832031 L 5.859375 -5.675781 C 5.859375 -5.761719 5.785156 -5.835938 5.703125 -5.835938 L 1.753906 -5.835938 C 1.667969 -5.835938 1.59375 -5.761719 1.59375 -5.675781 L 1.59375 -5.417969 C 1.59375 -5.332031 1.519531 -5.261719 1.433594 -5.261719 L 1.042969 -5.261719 C 0.957031 -5.261719 0.882812 -5.1875 0.882812 -5.101562 L 0.882812 -4.832031 C 0.882812 -4.746094 0.808594 -4.671875 0.722656 -4.671875 L 0.332031 -4.671875 C 0.246094 -4.671875 0.171875 -4.597656 0.171875 -4.511719 L 0.171875 -1.324219 C 0.171875 -1.238281 0.246094 -1.164062 0.332031 -1.164062 L 0.722656 -1.164062 C 0.808594 -1.164062 0.882812 -1.089844 0.882812 -1.003906 L 0.882812 -0.746094 C 0.882812 -0.660156 0.957031 -0.589844 1.042969 -0.589844 L 1.433594 -0.589844 C 1.519531 -0.589844 1.59375 -0.515625 1.59375 -0.429688 L 1.59375 -0.160156 C 1.59375 -0.0742188 1.667969 0 1.753906 0 L 5.703125 0 C 5.785156 0 5.859375 -0.0742188 5.859375 -0.160156 L 5.859375 -1.003906 C 5.859375 -1.089844 5.785156 -1.164062 5.703125 -1.164062 L 1.753906 -1.164062 C 1.667969 -1.164062 1.59375 -1.238281 1.59375 -1.324219 L 1.59375 -2.171875 C 1.59375 -2.257812 1.667969 -2.328125 1.753906 -2.328125 Z M 5.703125 -2.328125 "/></g></g></g><g fill="#000000" fill-opacity="1"><g transform="translate(182.40413, 59.000125)"><g><path d="M 0.171875 -0.160156 C 0.171875 -0.0742188 0.246094 0 0.332031 0 L 1.433594 0 C 1.519531 0 1.59375 -0.0742188 1.59375 -0.160156 L 1.59375 -4.511719 C 1.59375 -4.597656 1.667969 -4.671875 1.753906 -4.671875 L 4.277344 -4.671875 C 4.363281 -4.671875 4.4375 -4.746094 4.4375 -4.832031 L 4.4375 -5.675781 C 4.4375 -5.761719 4.363281 -5.835938 4.277344 -5.835938 L 1.753906 -5.835938 C 1.667969 -5.835938 1.59375 -5.761719 1.59375 -5.675781 L 1.59375 -5.417969 C 1.59375 -5.332031 1.519531 -5.261719 1.433594 -5.261719 L 1.042969 -5.261719 C 0.957031 -5.261719 0.882812 -5.1875 0.882812 -5.101562 L 0.882812 -4.832031 C 0.882812 -4.746094 0.808594 -4.671875 0.722656 -4.671875 L 0.332031 -4.671875 C 0.246094 -4.671875 0.171875 -4.597656 0.171875 -4.511719 Z M 0.171875 -0.160156 "/></g></g></g><g fill="#000000" fill-opacity="1"><g transform="translate(190.565197, 59.000125)"><g><path d="M 5.703125 -2.328125 C 5.785156 -2.328125 5.859375 -2.402344 5.859375 -2.488281 L 5.859375 -3.335938 C 5.859375 -3.421875 5.785156 -3.496094 5.703125 -3.496094 L 1.753906 -3.496094 C 1.667969 -3.496094 1.59375 -3.566406 1.59375 -3.652344 L 1.59375 -4.511719 C 1.59375 -4.597656 1.667969 -4.671875 1.753906 -4.671875 L 5.703125 -4.671875 C 5.785156 -4.671875 5.859375 -4.746094 5.859375 -4.832031 L 5.859375 -5.675781 C 5.859375 -5.761719 5.785156 -5.835938 5.703125 -5.835938 L 1.753906 -5.835938 C 1.667969 -5.835938 1.59375 -5.761719 1.59375 -5.675781 L 1.59375 -5.417969 C 1.59375 -5.332031 1.519531 -5.261719 1.433594 -5.261719 L 1.042969 -5.261719 C 0.957031 -5.261719 0.882812 -5.1875 0.882812 -5.101562 L 0.882812 -4.832031 C 0.882812 -4.746094 0.808594 -4.671875 0.722656 -4.671875 L 0.332031 -4.671875 C 0.246094 -4.671875 0.171875 -4.597656 0.171875 -4.511719 L 0.171875 -1.324219 C 0.171875 -1.238281 0.246094 -1.164062 0.332031 -1.164062 L 0.722656 -1.164062 C 0.808594 -1.164062 0.882812 -1.089844 0.882812 -1.003906 L 0.882812 -0.746094 C 0.882812 -0.660156 0.957031 -0.589844 1.042969 -0.589844 L 1.433594 -0.589844 C 1.519531 -0.589844 1.59375 -0.515625 1.59375 -0.429688 L 1.59375 -0.160156 C 1.59375 -0.0742188 1.667969 0 1.753906 0 L 5.703125 0 C 5.785156 0 5.859375 -0.0742188 5.859375 -0.160156 L 5.859375 -1.003906 C 5.859375 -1.089844 5.785156 -1.164062 5.703125 -1.164062 L 1.753906 -1.164062 C 1.667969 -1.164062 1.59375 -1.238281 1.59375 -1.324219 L 1.59375 -2.171875 C 1.59375 -2.257812 1.667969 -2.328125 1.753906 -2.328125 Z M 5.703125 -2.328125 "/></g></g></g><g fill="#000000" fill-opacity="1"><g transform="translate(196.863523, 59.000125)"><g><path d="M 1.753906 -5.835938 C 1.667969 -5.835938 1.59375 -5.761719 1.59375 -5.675781 L 1.59375 -5.417969 C 1.59375 -5.332031 1.519531 -5.261719 1.433594 -5.261719 L 1.042969 -5.261719 C 0.957031 -5.261719 0.882812 -5.1875 0.882812 -5.101562 L 0.882812 -4.832031 C 0.882812 -4.746094 0.808594 -4.671875 0.722656 -4.671875 L 0.332031 -4.671875 C 0.246094 -4.671875 0.171875 -4.597656 0.171875 -4.511719 L 0.171875 -0.160156 C 0.171875 -0.0742188 0.246094 0 0.332031 0 L 1.433594 0 C 1.519531 0 1.59375 -0.0742188 1.59375 -0.160156 L 1.59375 -4.511719 C 1.59375 -4.597656 1.667969 -4.671875 1.753906 -4.671875 L 4.277344 -4.671875 C 4.363281 -4.671875 4.4375 -4.597656 4.4375 -4.511719 L 4.4375 -0.160156 C 4.4375 -0.0742188 4.511719 0 4.597656 0 L 5.703125 0 C 5.785156 0 5.859375 -0.0742188 5.859375 -0.160156 L 5.859375 -4.511719 C 5.859375 -4.597656 5.933594 -4.671875 6.019531 -4.671875 L 8.546875 -4.671875 C 8.632812 -4.671875 8.707031 -4.597656 8.707031 -4.511719 L 8.707031 -0.160156 C 8.707031 -0.0742188 8.777344 0 8.863281 0 L 9.96875 0 C 10.054688 0 10.128906 -0.0742188 10.128906 -0.160156 L 10.128906 -4.511719 C 10.128906 -4.597656 10.054688 -4.671875 9.96875 -4.671875 L 9.574219 -4.671875 C 9.488281 -4.671875 9.417969 -4.746094 9.417969 -4.832031 L 9.417969 -5.101562 C 9.417969 -5.1875 9.34375 -5.261719 9.257812 -5.261719 L 8.863281 -5.261719 C 8.777344 -5.261719 8.707031 -5.332031 8.707031 -5.417969 L 8.707031 -5.675781 C 8.707031 -5.761719 8.632812 -5.835938 8.546875 -5.835938 L 6.019531 -5.835938 C 5.933594 -5.835938 5.859375 -5.761719 5.859375 -5.675781 L 5.859375 -5.417969 C 5.859375 -5.332031 5.785156 -5.261719 5.703125 -5.261719 L 4.597656 -5.261719 C 4.511719 -5.261719 4.4375 -5.332031 4.4375 -5.417969 L 4.4375 -5.675781 C 4.4375 -5.761719 4.363281 -5.835938 4.277344 -5.835938 Z M 1.753906 -5.835938 "/></g></g></g><g fill="#000000" fill-opacity="1"><g transform="translate(207.425882, 59.000125)"><g><path d="M 1.59375 -4.511719 C 1.59375 -4.597656 1.667969 -4.671875 1.753906 -4.671875 L 4.277344 -4.671875 C 4.363281 -4.671875 4.4375 -4.597656 4.4375 -4.511719 L 4.4375 -1.324219 C 4.4375 -1.238281 4.363281 -1.164062 4.277344 -1.164062 L 1.753906 -1.164062 C 1.667969 -1.164062 1.59375 -1.238281 1.59375 -1.324219 Z M 0.171875 -1.324219 C 0.171875 -1.238281 0.246094 -1.164062 0.332031 -1.164062 L 0.722656 -1.164062 C 0.808594 -1.164062 0.882812 -1.089844 0.882812 -1.003906 L 0.882812 -0.746094 C 0.882812 -0.660156 0.957031 -0.589844 1.042969 -0.589844 L 1.433594 -0.589844 C 1.519531 -0.589844 1.59375 -0.515625 1.59375 -0.429688 L 1.59375 -0.160156 C 1.59375 -0.0742188 1.667969 0 1.753906 0 L 4.277344 0 C 4.363281 0 4.4375 -0.0742188 4.4375 -0.160156 L 4.4375 -0.429688 C 4.4375 -0.515625 4.511719 -0.589844 4.597656 -0.589844 L 4.988281 -0.589844 C 5.074219 -0.589844 5.148438 -0.660156 5.148438 -0.746094 L 5.148438 -1.003906 C 5.148438 -1.089844 5.222656 -1.164062 5.308594 -1.164062 L 5.703125 -1.164062 C 5.785156 -1.164062 5.859375 -1.238281 5.859375 -1.324219 L 5.859375 -4.511719 C 5.859375 -4.597656 5.785156 -4.671875 5.703125 -4.671875 L 5.308594 -4.671875 C 5.222656 -4.671875 5.148438 -4.746094 5.148438 -4.832031 L 5.148438 -5.101562 C 5.148438 -5.1875 5.074219 -5.261719 4.988281 -5.261719 L 4.597656 -5.261719 C 4.511719 -5.261719 4.4375 -5.332031 4.4375 -5.417969 L 4.4375 -5.675781 C 4.4375 -5.761719 4.363281 -5.835938 4.277344 -5.835938 L 1.753906 -5.835938 C 1.667969 -5.835938 1.59375 -5.910156 1.59375 -5.996094 L 1.59375 -8.019531 C 1.59375 -8.105469 1.519531 -8.179688 1.433594 -8.179688 L 0.332031 -8.179688 C 0.246094 -8.179688 0.171875 -8.105469 0.171875 -8.019531 Z M 0.171875 -1.324219 "/></g></g></g><g fill="#000000" fill-opacity="1"><g transform="translate(213.724211, 59.000125)"><g><path d="M 5.703125 -2.328125 C 5.785156 -2.328125 5.859375 -2.402344 5.859375 -2.488281 L 5.859375 -3.335938 C 5.859375 -3.421875 5.785156 -3.496094 5.703125 -3.496094 L 1.753906 -3.496094 C 1.667969 -3.496094 1.59375 -3.566406 1.59375 -3.652344 L 1.59375 -4.511719 C 1.59375 -4.597656 1.667969 -4.671875 1.753906 -4.671875 L 5.703125 -4.671875 C 5.785156 -4.671875 5.859375 -4.746094 5.859375 -4.832031 L 5.859375 -5.675781 C 5.859375 -5.761719 5.785156 -5.835938 5.703125 -5.835938 L 1.753906 -5.835938 C 1.667969 -5.835938 1.59375 -5.761719 1.59375 -5.675781 L 1.59375 -5.417969 C 1.59375 -5.332031 1.519531 -5.261719 1.433594 -5.261719 L 1.042969 -5.261719 C 0.957031 -5.261719 0.882812 -5.1875 0.882812 -5.101562 L 0.882812 -4.832031 C 0.882812 -4.746094 0.808594 -4.671875 0.722656 -4.671875 L 0.332031 -4.671875 C 0.246094 -4.671875 0.171875 -4.597656 0.171875 -4.511719 L 0.171875 -1.324219 C 0.171875 -1.238281 0.246094 -1.164062 0.332031 -1.164062 L 0.722656 -1.164062 C 0.808594 -1.164062 0.882812 -1.089844 0.882812 -1.003906 L 0.882812 -0.746094 C 0.882812 -0.660156 0.957031 -0.589844 1.042969 -0.589844 L 1.433594 -0.589844 C 1.519531 -0.589844 1.59375 -0.515625 1.59375 -0.429688 L 1.59375 -0.160156 C 1.59375 -0.0742188 1.667969 0 1.753906 0 L 5.703125 0 C 5.785156 0 5.859375 -0.0742188 5.859375 -0.160156 L 5.859375 -1.003906 C 5.859375 -1.089844 5.785156 -1.164062 5.703125 -1.164062 L 1.753906 -1.164062 C 1.667969 -1.164062 1.59375 -1.238281 1.59375 -1.324219 L 1.59375 -2.171875 C 1.59375 -2.257812 1.667969 -2.328125 1.753906 -2.328125 Z M 5.703125 -2.328125 "/></g></g></g><g fill="#000000" fill-opacity="1"><g transform="translate(220.022541, 59.000125)"><g><path d="M 4.4375 -1.324219 C 4.4375 -1.238281 4.363281 -1.164062 4.277344 -1.164062 L 1.753906 -1.164062 C 1.667969 -1.164062 1.59375 -1.238281 1.59375 -1.324219 L 1.59375 -4.511719 C 1.59375 -4.597656 1.667969 -4.671875 1.753906 -4.671875 L 4.277344 -4.671875 C 4.363281 -4.671875 4.4375 -4.597656 4.4375 -4.511719 Z M 5.859375 -8.019531 C 5.859375 -8.105469 5.785156 -8.179688 5.703125 -8.179688 L 4.597656 -8.179688 C 4.511719 -8.179688 4.4375 -8.105469 4.4375 -8.019531 L 4.4375 -5.996094 C 4.4375 -5.910156 4.363281 -5.835938 4.277344 -5.835938 L 1.753906 -5.835938 C 1.667969 -5.835938 1.59375 -5.761719 1.59375 -5.675781 L 1.59375 -5.417969 C 1.59375 -5.332031 1.519531 -5.261719 1.433594 -5.261719 L 1.042969 -5.261719 C 0.957031 -5.261719 0.882812 -5.1875 0.882812 -5.101562 L 0.882812 -4.832031 C 0.882812 -4.746094 0.808594 -4.671875 0.722656 -4.671875 L 0.332031 -4.671875 C 0.246094 -4.671875 0.171875 -4.597656 0.171875 -4.511719 L 0.171875 -1.324219 C 0.171875 -1.238281 0.246094 -1.164062 0.332031 -1.164062 L 0.722656 -1.164062 C 0.808594 -1.164062 0.882812 -1.089844 0.882812 -1.003906 L 0.882812 -0.746094 C 0.882812 -0.660156 0.957031 -0.589844 1.042969 -0.589844 L 1.433594 -0.589844 C 1.519531 -0.589844 1.59375 -0.515625 1.59375 -0.429688 L 1.59375 -0.160156 C 1.59375 -0.0742188 1.667969 0 1.753906 0 L 4.277344 0 C 4.363281 0 4.4375 -0.0742188 4.4375 -0.160156 L 4.4375 -0.429688 C 4.4375 -0.515625 4.511719 -0.589844 4.597656 -0.589844 L 4.988281 -0.589844 C 5.074219 -0.589844 5.148438 -0.660156 5.148438 -0.746094 L 5.148438 -1.003906 C 5.148438 -1.089844 5.222656 -1.164062 5.308594 -1.164062 L 5.703125 -1.164062 C 5.785156 -1.164062 5.859375 -1.238281 5.859375 -1.324219 Z M 5.859375 -8.019531 "/></g></g></g><g fill="#000000" fill-opacity="1"><g transform="translate(226.32087, 59.000125)"><g><path d="M 4.4375 -1.324219 C 4.4375 -1.238281 4.363281 -1.164062 4.277344 -1.164062 L 1.753906 -1.164062 C 1.667969 -1.164062 1.59375 -1.238281 1.59375 -1.324219 L 1.59375 -4.511719 C 1.59375 -4.597656 1.667969 -4.671875 1.753906 -4.671875 L 4.277344 -4.671875 C 4.363281 -4.671875 4.4375 -4.597656 4.4375 -4.511719 Z M 5.859375 -8.019531 C 5.859375 -8.105469 5.785156 -8.179688 5.703125 -8.179688 L 4.597656 -8.179688 C 4.511719 -8.179688 4.4375 -8.105469 4.4375 -8.019531 L 4.4375 -5.996094 C 4.4375 -5.910156 4.363281 -5.835938 4.277344 -5.835938 L 1.753906 -5.835938 C 1.667969 -5.835938 1.59375 -5.761719 1.59375 -5.675781 L 1.59375 -5.417969 C 1.59375 -5.332031 1.519531 -5.261719 1.433594 -5.261719 L 1.042969 -5.261719 C 0.957031 -5.261719 0.882812 -5.1875 0.882812 -5.101562 L 0.882812 -4.832031 C 0.882812 -4.746094 0.808594 -4.671875 0.722656 -4.671875 L 0.332031 -4.671875 C 0.246094 -4.671875 0.171875 -4.597656 0.171875 -4.511719 L 0.171875 -1.324219 C 0.171875 -1.238281 0.246094 -1.164062 0.332031 -1.164062 L 0.722656 -1.164062 C 0.808594 -1.164062 0.882812 -1.089844 0.882812 -1.003906 L 0.882812 -0.746094 C 0.882812 -0.660156 0.957031 -0.589844 1.042969 -0.589844 L 1.433594 -0.589844 C 1.519531 -0.589844 1.59375 -0.515625 1.59375 -0.429688 L 1.59375 -0.160156 C 1.59375 -0.0742188 1.667969 0 1.753906 0 L 4.277344 0 C 4.363281 0 4.4375 -0.0742188 4.4375 -0.160156 L 4.4375 -0.429688 C 4.4375 -0.515625 4.511719 -0.589844 4.597656 -0.589844 L 4.988281 -0.589844 C 5.074219 -0.589844 5.148438 -0.660156 5.148438 -0.746094 L 5.148438 -1.003906 C 5.148438 -1.089844 5.222656 -1.164062 5.308594 -1.164062 L 5.703125 -1.164062 C 5.785156 -1.164062 5.859375 -1.238281 5.859375 -1.324219 Z M 5.859375 -8.019531 "/></g></g></g><g fill="#000000" fill-opacity="1"><g transform="translate(232.6192, 59.000125)"><g><path d="M 5.703125 -2.328125 C 5.785156 -2.328125 5.859375 -2.402344 5.859375 -2.488281 L 5.859375 -3.335938 C 5.859375 -3.421875 5.785156 -3.496094 5.703125 -3.496094 L 1.753906 -3.496094 C 1.667969 -3.496094 1.59375 -3.566406 1.59375 -3.652344 L 1.59375 -4.511719 C 1.59375 -4.597656 1.667969 -4.671875 1.753906 -4.671875 L 5.703125 -4.671875 C 5.785156 -4.671875 5.859375 -4.746094 5.859375 -4.832031 L 5.859375 -5.675781 C 5.859375 -5.761719 5.785156 -5.835938 5.703125 -5.835938 L 1.753906 -5.835938 C 1.667969 -5.835938 1.59375 -5.761719 1.59375 -5.675781 L 1.59375 -5.417969 C 1.59375 -5.332031 1.519531 -5.261719 1.433594 -5.261719 L 1.042969 -5.261719 C 0.957031 -5.261719 0.882812 -5.1875 0.882812 -5.101562 L 0.882812 -4.832031 C 0.882812 -4.746094 0.808594 -4.671875 0.722656 -4.671875 L 0.332031 -4.671875 C 0.246094 -4.671875 0.171875 -4.597656 0.171875 -4.511719 L 0.171875 -1.324219 C 0.171875 -1.238281 0.246094 -1.164062 0.332031 -1.164062 L 0.722656 -1.164062 C 0.808594 -1.164062 0.882812 -1.089844 0.882812 -1.003906 L 0.882812 -0.746094 C 0.882812 -0.660156 0.957031 -0.589844 1.042969 -0.589844 L 1.433594 -0.589844 C 1.519531 -0.589844 1.59375 -0.515625 1.59375 -0.429688 L 1.59375 -0.160156 C 1.59375 -0.0742188 1.667969 0 1.753906 0 L 5.703125 0 C 5.785156 0 5.859375 -0.0742188 5.859375 -0.160156 L 5.859375 -1.003906 C 5.859375 -1.089844 5.785156 -1.164062 5.703125 -1.164062 L 1.753906 -1.164062 C 1.667969 -1.164062 1.59375 -1.238281 1.59375 -1.324219 L 1.59375 -2.171875 C 1.59375 -2.257812 1.667969 -2.328125 1.753906 -2.328125 Z M 5.703125 -2.328125 "/></g></g></g><g fill="#000000" fill-opacity="1"><g transform="translate(238.91753, 59.000125)"><g><path d="M 4.4375 -1.324219 C 4.4375 -1.238281 4.363281 -1.164062 4.277344 -1.164062 L 1.753906 -1.164062 C 1.667969 -1.164062 1.59375 -1.238281 1.59375 -1.324219 L 1.59375 -4.511719 C 1.59375 -4.597656 1.667969 -4.671875 1.753906 -4.671875 L 4.277344 -4.671875 C 4.363281 -4.671875 4.4375 -4.597656 4.4375 -4.511719 Z M 5.859375 -8.019531 C 5.859375 -8.105469 5.785156 -8.179688 5.703125 -8.179688 L 4.597656 -8.179688 C 4.511719 -8.179688 4.4375 -8.105469 4.4375 -8.019531 L 4.4375 -5.996094 C 4.4375 -5.910156 4.363281 -5.835938 4.277344 -5.835938 L 1.753906 -5.835938 C 1.667969 -5.835938 1.59375 -5.761719 1.59375 -5.675781 L 1.59375 -5.417969 C 1.59375 -5.332031 1.519531 -5.261719 1.433594 -5.261719 L 1.042969 -5.261719 C 0.957031 -5.261719 0.882812 -5.1875 0.882812 -5.101562 L 0.882812 -4.832031 C 0.882812 -4.746094 0.808594 -4.671875 0.722656 -4.671875 L 0.332031 -4.671875 C 0.246094 -4.671875 0.171875 -4.597656 0.171875 -4.511719 L 0.171875 -1.324219 C 0.171875 -1.238281 0.246094 -1.164062 0.332031 -1.164062 L 0.722656 -1.164062 C 0.808594 -1.164062 0.882812 -1.089844 0.882812 -1.003906 L 0.882812 -0.746094 C 0.882812 -0.660156 0.957031 -0.589844 1.042969 -0.589844 L 1.433594 -0.589844 C 1.519531 -0.589844 1.59375 -0.515625 1.59375 -0.429688 L 1.59375 -0.160156 C 1.59375 -0.0742188 1.667969 0 1.753906 0 L 4.277344 0 C 4.363281 0 4.4375 -0.0742188 4.4375 -0.160156 L 4.4375 -0.429688 C 4.4375 -0.515625 4.511719 -0.589844 4.597656 -0.589844 L 4.988281 -0.589844 C 5.074219 -0.589844 5.148438 -0.660156 5.148438 -0.746094 L 5.148438 -1.003906 C 5.148438 -1.089844 5.222656 -1.164062 5.308594 -1.164062 L 5.703125 -1.164062 C 5.785156 -1.164062 5.859375 -1.238281 5.859375 -1.324219 Z M 5.859375 -8.019531 "/></g></g></g><g fill="#000000" fill-opacity="1"><g transform="translate(248.499944, 59.000125)"><g><path d="M 1.753906 -5.835938 C 1.667969 -5.835938 1.59375 -5.761719 1.59375 -5.675781 L 1.59375 -5.417969 C 1.59375 -5.332031 1.519531 -5.261719 1.433594 -5.261719 L 1.042969 -5.261719 C 0.957031 -5.261719 0.882812 -5.1875 0.882812 -5.101562 L 0.882812 -4.832031 C 0.882812 -4.746094 0.808594 -4.671875 0.722656 -4.671875 L 0.332031 -4.671875 C 0.246094 -4.671875 0.171875 -4.597656 0.171875 -4.511719 L 0.171875 -0.160156 C 0.171875 -0.0742188 0.246094 0 0.332031 0 L 1.433594 0 C 1.519531 0 1.59375 -0.0742188 1.59375 -0.160156 L 1.59375 -4.511719 C 1.59375 -4.597656 1.667969 -4.671875 1.753906 -4.671875 L 4.277344 -4.671875 C 4.363281 -4.671875 4.4375 -4.597656 4.4375 -4.511719 L 4.4375 -0.160156 C 4.4375 -0.0742188 4.511719 0 4.597656 0 L 5.703125 0 C 5.785156 0 5.859375 -0.0742188 5.859375 -0.160156 L 5.859375 -4.511719 C 5.859375 -4.597656 5.933594 -4.671875 6.019531 -4.671875 L 8.546875 -4.671875 C 8.632812 -4.671875 8.707031 -4.597656 8.707031 -4.511719 L 8.707031 -0.160156 C 8.707031 -0.0742188 8.777344 0 8.863281 0 L 9.96875 0 C 10.054688 0 10.128906 -0.0742188 10.128906 -0.160156 L 10.128906 -4.511719 C 10.128906 -4.597656 10.054688 -4.671875 9.96875 -4.671875 L 9.574219 -4.671875 C 9.488281 -4.671875 9.417969 -4.746094 9.417969 -4.832031 L 9.417969 -5.101562 C 9.417969 -5.1875 9.34375 -5.261719 9.257812 -5.261719 L 8.863281 -5.261719 C 8.777344 -5.261719 8.707031 -5.332031 8.707031 -5.417969 L 8.707031 -5.675781 C 8.707031 -5.761719 8.632812 -5.835938 8.546875 -5.835938 L 6.019531 -5.835938 C 5.933594 -5.835938 5.859375 -5.761719 5.859375 -5.675781 L 5.859375 -5.417969 C 5.859375 -5.332031 5.785156 -5.261719 5.703125 -5.261719 L 4.597656 -5.261719 C 4.511719 -5.261719 4.4375 -5.332031 4.4375 -5.417969 L 4.4375 -5.675781 C 4.4375 -5.761719 4.363281 -5.835938 4.277344 -5.835938 Z M 1.753906 -5.835938 "/></g></g></g><g fill="#000000" fill-opacity="1"><g transform="translate(259.062296, 59.000125)"><g><path d="M 2.855469 0 C 2.941406 0 3.015625 -0.0742188 3.015625 -0.160156 L 3.015625 -0.429688 C 3.015625 -0.515625 3.089844 -0.589844 3.175781 -0.589844 L 3.566406 -0.589844 C 3.652344 -0.589844 3.726562 -0.660156 3.726562 -0.746094 L 3.726562 -1.003906 C 3.726562 -1.089844 3.800781 -1.164062 3.886719 -1.164062 L 4.277344 -1.164062 C 4.363281 -1.164062 4.4375 -1.238281 4.4375 -1.324219 L 4.4375 -5.675781 C 4.4375 -5.761719 4.363281 -5.835938 4.277344 -5.835938 L 3.175781 -5.835938 C 3.089844 -5.835938 3.015625 -5.761719 3.015625 -5.675781 L 3.015625 -1.324219 C 3.015625 -1.238281 2.941406 -1.164062 2.855469 -1.164062 L 0.332031 -1.164062 C 0.246094 -1.164062 0.171875 -1.089844 0.171875 -1.003906 L 0.171875 -0.160156 C 0.171875 -0.0742188 0.246094 0 0.332031 0 Z M 2.855469 0 "/></g></g></g><g fill="#000000" fill-opacity="1"><g transform="translate(263.939278, 59.000125)"><g><path d="M 4.277344 0 C 4.363281 0 4.4375 -0.0742188 4.4375 -0.160156 L 4.4375 -0.429688 C 4.4375 -0.515625 4.511719 -0.589844 4.597656 -0.589844 L 4.988281 -0.589844 C 5.074219 -0.589844 5.148438 -0.660156 5.148438 -0.746094 L 5.148438 -1.003906 C 5.148438 -1.089844 5.222656 -1.164062 5.308594 -1.164062 L 5.703125 -1.164062 C 5.785156 -1.164062 5.859375 -1.238281 5.859375 -1.324219 L 5.859375 -4.511719 C 5.859375 -4.597656 5.785156 -4.671875 5.703125 -4.671875 L 5.308594 -4.671875 C 5.222656 -4.671875 5.148438 -4.746094 5.148438 -4.832031 L 5.148438 -5.101562 C 5.148438 -5.1875 5.074219 -5.261719 4.988281 -5.261719 L 4.597656 -5.261719 C 4.511719 -5.261719 4.4375 -5.332031 4.4375 -5.417969 L 4.4375 -5.675781 C 4.4375 -5.761719 4.363281 -5.835938 4.277344 -5.835938 L 1.753906 -5.835938 C 1.667969 -5.835938 1.59375 -5.910156 1.59375 -5.996094 L 1.59375 -8.019531 C 1.59375 -8.105469 1.519531 -8.179688 1.433594 -8.179688 L 0.332031 -8.179688 C 0.246094 -8.179688 0.171875 -8.105469 0.171875 -8.019531 L 0.171875 -5.996094 C 0.171875 -5.910156 0.246094 -5.835938 0.332031 -5.835938 L 0.722656 -5.835938 C 0.808594 -5.835938 0.882812 -5.761719 0.882812 -5.675781 L 0.882812 -5.417969 C 0.882812 -5.332031 0.957031 -5.261719 1.042969 -5.261719 L 1.433594 -5.261719 C 1.519531 -5.261719 1.59375 -5.1875 1.59375 -5.101562 L 1.59375 -4.832031 C 1.59375 -4.746094 1.667969 -4.671875 1.753906 -4.671875 L 4.277344 -4.671875 C 4.363281 -4.671875 4.4375 -4.597656 4.4375 -4.511719 L 4.4375 -1.324219 C 4.4375 -1.238281 4.363281 -1.164062 4.277344 -1.164062 L 0.332031 -1.164062 C 0.246094 -1.164062 0.171875 -1.089844 0.171875 -1.003906 L 0.171875 -0.160156 C 0.171875 -0.0742188 0.246094 0 0.332031 0 Z M 4.277344 0 "/></g></g></g><g fill="#000000" fill-opacity="1"><g transform="translate(270.237607, 59.000125)"><g><path d="M 1.753906 0 L 4.277344 0 C 4.363281 0 4.4375 -0.0742188 4.4375 -0.160156 L 4.4375 -1.003906 C 4.4375 -1.089844 4.363281 -1.164062 4.277344 -1.164062 L 1.753906 -1.164062 C 1.667969 -1.164062 1.59375 -1.238281 1.59375 -1.324219 L 1.59375 -4.511719 C 1.59375 -4.597656 1.667969 -4.671875 1.753906 -4.671875 L 4.277344 -4.671875 C 4.363281 -4.671875 4.4375 -4.746094 4.4375 -4.832031 L 4.4375 -5.675781 C 4.4375 -5.761719 4.363281 -5.835938 4.277344 -5.835938 L 1.753906 -5.835938 C 1.667969 -5.835938 1.59375 -5.910156 1.59375 -5.996094 L 1.59375 -8.019531 C 1.59375 -8.105469 1.519531 -8.179688 1.433594 -8.179688 L 0.332031 -8.179688 C 0.246094 -8.179688 0.171875 -8.105469 0.171875 -8.019531 L 0.171875 -1.324219 C 0.171875 -1.238281 0.246094 -1.164062 0.332031 -1.164062 L 0.722656 -1.164062 C 0.808594 -1.164062 0.882812 -1.089844 0.882812 -1.003906 L 0.882812 -0.734375 C 0.882812 -0.648438 0.957031 -0.578125 1.042969 -0.578125 L 1.433594 -0.578125 C 1.519531 -0.578125 1.59375 -0.503906 1.59375 -0.417969 L 1.59375 -0.160156 C 1.59375 -0.0742188 1.667969 0 1.753906 0 Z M 1.753906 0 "/></g></g></g><g fill="#000000" fill-opacity="1"><g transform="translate(275.114589, 59.000125)"><g><path d="M 5.703125 -2.328125 C 5.785156 -2.328125 5.859375 -2.402344 5.859375 -2.488281 L 5.859375 -3.335938 C 5.859375 -3.421875 5.785156 -3.496094 5.703125 -3.496094 L 1.753906 -3.496094 C 1.667969 -3.496094 1.59375 -3.566406 1.59375 -3.652344 L 1.59375 -4.511719 C 1.59375 -4.597656 1.667969 -4.671875 1.753906 -4.671875 L 5.703125 -4.671875 C 5.785156 -4.671875 5.859375 -4.746094 5.859375 -4.832031 L 5.859375 -5.675781 C 5.859375 -5.761719 5.785156 -5.835938 5.703125 -5.835938 L 1.753906 -5.835938 C 1.667969 -5.835938 1.59375 -5.761719 1.59375 -5.675781 L 1.59375 -5.417969 C 1.59375 -5.332031 1.519531 -5.261719 1.433594 -5.261719 L 1.042969 -5.261719 C 0.957031 -5.261719 0.882812 -5.1875 0.882812 -5.101562 L 0.882812 -4.832031 C 0.882812 -4.746094 0.808594 -4.671875 0.722656 -4.671875 L 0.332031 -4.671875 C 0.246094 -4.671875 0.171875 -4.597656 0.171875 -4.511719 L 0.171875 -1.324219 C 0.171875 -1.238281 0.246094 -1.164062 0.332031 -1.164062 L 0.722656 -1.164062 C 0.808594 -1.164062 0.882812 -1.089844 0.882812 -1.003906 L 0.882812 -0.746094 C 0.882812 -0.660156 0.957031 -0.589844 1.042969 -0.589844 L 1.433594 -0.589844 C 1.519531 -0.589844 1.59375 -0.515625 1.59375 -0.429688 L 1.59375 -0.160156 C 1.59375 -0.0742188 1.667969 0 1.753906 0 L 5.703125 0 C 5.785156 0 5.859375 -0.0742188 5.859375 -0.160156 L 5.859375 -1.003906 C 5.859375 -1.089844 5.785156 -1.164062 5.703125 -1.164062 L 1.753906 -1.164062 C 1.667969 -1.164062 1.59375 -1.238281 1.59375 -1.324219 L 1.59375 -2.171875 C 1.59375 -2.257812 1.667969 -2.328125 1.753906 -2.328125 Z M 5.703125 -2.328125 "/></g></g></g><g fill="#000000" fill-opacity="1"><g transform="translate(281.412919, 59.000125)"><g><path d="M 0.171875 -0.160156 C 0.171875 -0.0742188 0.246094 0 0.332031 0 L 1.433594 0 C 1.519531 0 1.59375 -0.0742188 1.59375 -0.160156 L 1.59375 -4.511719 C 1.59375 -4.597656 1.667969 -4.671875 1.753906 -4.671875 L 4.277344 -4.671875 C 4.363281 -4.671875 4.4375 -4.746094 4.4375 -4.832031 L 4.4375 -5.675781 C 4.4375 -5.761719 4.363281 -5.835938 4.277344 -5.835938 L 1.753906 -5.835938 C 1.667969 -5.835938 1.59375 -5.761719 1.59375 -5.675781 L 1.59375 -5.417969 C 1.59375 -5.332031 1.519531 -5.261719 1.433594 -5.261719 L 1.042969 -5.261719 C 0.957031 -5.261719 0.882812 -5.1875 0.882812 -5.101562 L 0.882812 -4.832031 C 0.882812 -4.746094 0.808594 -4.671875 0.722656 -4.671875 L 0.332031 -4.671875 C 0.246094 -4.671875 0.171875 -4.597656 0.171875 -4.511719 Z M 0.171875 -0.160156 "/></g></g></g><g fill="#000000" fill-opacity="1"><g transform="translate(286.289901, 59.000125)"><g><path d="M 0.171875 -1.324219 C 0.171875 -1.238281 0.246094 -1.164062 0.332031 -1.164062 L 0.722656 -1.164062 C 0.808594 -1.164062 0.882812 -1.089844 0.882812 -1.003906 L 0.882812 -0.746094 C 0.882812 -0.660156 0.957031 -0.589844 1.042969 -0.589844 L 1.433594 -0.589844 C 1.519531 -0.589844 1.59375 -0.515625 1.59375 -0.429688 L 1.59375 -0.160156 C 1.59375 -0.0742188 1.667969 0 1.753906 0 L 4.277344 0 C 4.363281 0 4.4375 0.0742188 4.4375 0.160156 L 4.4375 2.171875 C 4.4375 2.257812 4.511719 2.328125 4.597656 2.328125 L 5.703125 2.328125 C 5.785156 2.328125 5.859375 2.257812 5.859375 2.171875 L 5.859375 -5.675781 C 5.859375 -5.761719 5.785156 -5.835938 5.703125 -5.835938 L 4.597656 -5.835938 C 4.511719 -5.835938 4.4375 -5.761719 4.4375 -5.675781 L 4.4375 -1.324219 C 4.4375 -1.238281 4.363281 -1.164062 4.277344 -1.164062 L 1.753906 -1.164062 C 1.667969 -1.164062 1.59375 -1.238281 1.59375 -1.324219 L 1.59375 -5.675781 C 1.59375 -5.761719 1.519531 -5.835938 1.433594 -5.835938 L 0.332031 -5.835938 C 0.246094 -5.835938 0.171875 -5.761719 0.171875 -5.675781 Z M 0.171875 -1.324219 "/></g></g></g></svg>