<svg xmlns="http://www.w3.org/2000/svg" xmlns:xlink="http://www.w3.org/1999/xlink" width="120" zoomAndPan="magnify" viewBox="0 0 90 89.999999" height="120" preserveAspectRatio="xMidYMid meet" version="1.0"><defs><clipPath id="e4a5fb9ee4"><path d="M 6.898438 6.898438 L 83.398438 6.898438 L 83.398438 83.398438 L 6.898438 83.398438 Z M 6.898438 6.898438 " clip-rule="nonzero"/></clipPath></defs><g clip-path="url(#e4a5fb9ee4)"><path fill="#ff0000" d="M 45.167969 6.898438 C 43.914062 6.902344 42.664062 6.960938 41.417969 7.085938 C 40.171875 7.207031 38.933594 7.394531 37.703125 7.636719 C 36.476562 7.882812 35.261719 8.1875 34.0625 8.550781 C 32.863281 8.914062 31.6875 9.335938 30.53125 9.816406 C 29.371094 10.296875 28.242188 10.832031 27.136719 11.421875 C 26.03125 12.015625 24.957031 12.65625 23.917969 13.355469 C 22.875 14.050781 21.871094 14.796875 20.902344 15.589844 C 19.933594 16.386719 19.007812 17.226562 18.121094 18.113281 C 17.238281 19 16.394531 19.925781 15.601562 20.894531 C 14.808594 21.863281 14.0625 22.871094 13.367188 23.910156 C 12.671875 24.953125 12.027344 26.027344 11.4375 27.132812 C 10.847656 28.238281 10.3125 29.367188 9.832031 30.527344 C 9.355469 31.683594 8.933594 32.863281 8.570312 34.0625 C 8.207031 35.261719 7.902344 36.472656 7.660156 37.703125 C 7.414062 38.933594 7.230469 40.167969 7.109375 41.417969 C 6.988281 42.664062 6.925781 43.914062 6.925781 45.167969 C 6.925781 46.417969 6.988281 47.667969 7.113281 48.914062 C 7.234375 50.164062 7.417969 51.398438 7.664062 52.628906 C 7.910156 53.859375 8.214844 55.070312 8.578125 56.269531 C 8.941406 57.46875 9.363281 58.648438 9.84375 59.804688 C 10.324219 60.960938 10.859375 62.09375 11.449219 63.199219 C 12.039062 64.300781 12.683594 65.375 13.378906 66.417969 C 14.074219 67.457031 14.820312 68.464844 15.617188 69.429688 C 16.410156 70.398438 17.253906 71.328125 18.136719 72.210938 C 19.023438 73.097656 19.953125 73.9375 20.921875 74.730469 C 21.890625 75.527344 22.894531 76.273438 23.9375 76.96875 C 24.980469 77.664062 26.050781 78.304688 27.15625 78.898438 C 28.261719 79.488281 29.394531 80.023438 30.550781 80.5 C 31.707031 80.980469 32.886719 81.402344 34.085938 81.765625 C 35.285156 82.128906 36.5 82.433594 37.726562 82.675781 C 38.957031 82.917969 40.195312 83.101562 41.441406 83.226562 C 42.6875 83.347656 43.9375 83.410156 45.191406 83.410156 C 46.445312 83.410156 47.695312 83.347656 48.941406 83.222656 C 50.1875 83.101562 51.425781 82.917969 52.652344 82.671875 C 53.882812 82.425781 55.097656 82.121094 56.296875 81.757812 C 57.492188 81.394531 58.671875 80.972656 59.828125 80.492188 C 60.988281 80.011719 62.117188 79.476562 63.222656 78.886719 C 64.328125 78.296875 65.398438 77.652344 66.441406 76.957031 C 67.484375 76.261719 68.488281 75.515625 69.457031 74.71875 C 70.425781 73.925781 71.351562 73.082031 72.238281 72.199219 C 73.125 71.3125 73.964844 70.382812 74.757812 69.414062 C 75.550781 68.445312 76.296875 67.441406 76.992188 66.398438 C 77.6875 65.359375 78.332031 64.285156 78.921875 63.179688 C 79.511719 62.074219 80.046875 60.941406 80.527344 59.785156 C 81.007812 58.628906 81.425781 57.449219 81.789062 56.25 C 82.152344 55.050781 82.457031 53.835938 82.703125 52.609375 C 82.945312 51.378906 83.128906 50.140625 83.25 48.894531 C 83.375 47.648438 83.433594 46.398438 83.433594 45.144531 C 83.433594 43.894531 83.367188 42.644531 83.242188 41.398438 C 83.117188 40.152344 82.933594 38.914062 82.6875 37.6875 C 82.441406 36.460938 82.132812 35.246094 81.769531 34.046875 C 81.402344 32.851562 80.980469 31.671875 80.5 30.515625 C 80.019531 29.359375 79.484375 28.230469 78.894531 27.125 C 78.300781 26.023438 77.65625 24.949219 76.960938 23.910156 C 76.265625 22.867188 75.519531 21.863281 74.722656 20.898438 C 73.929688 19.929688 73.089844 19.003906 72.203125 18.117188 C 71.316406 17.230469 70.390625 16.390625 69.421875 15.597656 C 68.453125 14.804688 67.449219 14.058594 66.40625 13.363281 C 65.367188 12.667969 64.292969 12.023438 63.191406 11.433594 C 62.085938 10.839844 60.953125 10.304688 59.796875 9.824219 C 58.640625 9.347656 57.464844 8.925781 56.265625 8.558594 C 55.066406 8.195312 53.855469 7.890625 52.625 7.644531 C 51.398438 7.398438 50.160156 7.214844 48.914062 7.089844 C 47.667969 6.964844 46.421875 6.902344 45.167969 6.898438 Z M 55.730469 77.421875 C 54.070312 77.761719 53.460938 76.742188 53.460938 75.859375 C 53.460938 74.738281 53.507812 71.171875 53.507812 66.730469 C 53.507812 63.648438 52.460938 61.632812 51.265625 60.609375 C 58.636719 59.777344 66.398438 56.972656 66.398438 44.230469 C 66.421875 42.582031 66.140625 40.988281 65.550781 39.449219 C 64.957031 37.910156 64.101562 36.535156 62.980469 35.324219 C 63.320312 34.492188 64.492188 31.101562 62.660156 26.523438 C 62.660156 26.523438 59.878906 25.617188 53.535156 29.910156 C 50.820312 29.179688 48.058594 28.816406 45.25 28.816406 C 42.4375 28.816406 39.675781 29.179688 36.964844 29.910156 C 30.621094 25.667969 27.835938 26.523438 27.835938 26.523438 C 26.03125 31.082031 27.179688 34.476562 27.515625 35.324219 C 26.402344 36.539062 25.554688 37.914062 24.96875 39.453125 C 24.382812 40.992188 24.101562 42.582031 24.128906 44.230469 C 24.128906 56.921875 31.839844 59.777344 39.207031 60.609375 C 38.257812 61.4375 37.375 62.875 37.085938 65.050781 C 35.179688 65.902344 30.421875 67.316406 27.445312 62.316406 C 26.8125 61.3125 24.957031 58.875 22.34375 58.902344 C 19.5625 58.949219 21.222656 60.484375 22.371094 61.101562 C 23.785156 61.90625 25.394531 64.835938 25.789062 65.785156 C 26.441406 67.664062 28.589844 71.226562 36.914062 69.6875 C 36.914062 72.472656 36.964844 75.085938 36.964844 75.851562 C 36.964844 76.730469 36.355469 77.703125 34.691406 77.414062 C 34.078125 77.207031 33.46875 76.984375 32.867188 76.742188 C 32.265625 76.5 31.671875 76.242188 31.085938 75.964844 C 30.5 75.6875 29.921875 75.394531 29.351562 75.085938 C 28.78125 74.773438 28.222656 74.445312 27.671875 74.105469 C 27.121094 73.761719 26.582031 73.402344 26.054688 73.027344 C 25.527344 72.652344 25.007812 72.261719 24.503906 71.855469 C 23.996094 71.449219 23.503906 71.03125 23.023438 70.59375 C 22.539062 70.160156 22.070312 69.714844 21.617188 69.25 C 21.164062 68.789062 20.722656 68.3125 20.292969 67.828125 C 19.867188 67.339844 19.453125 66.839844 19.058594 66.328125 C 18.660156 65.816406 18.277344 65.292969 17.910156 64.757812 C 17.542969 64.222656 17.191406 63.675781 16.855469 63.121094 C 16.523438 62.566406 16.203125 62.003906 15.902344 61.429688 C 15.601562 60.855469 15.316406 60.273438 15.046875 59.683594 C 14.78125 59.09375 14.53125 58.492188 14.296875 57.890625 C 14.066406 57.285156 13.851562 56.671875 13.652344 56.054688 C 13.457031 55.4375 13.277344 54.8125 13.117188 54.183594 C 12.957031 53.558594 12.816406 52.925781 12.695312 52.289062 C 12.570312 51.652344 12.46875 51.011719 12.382812 50.367188 C 12.296875 49.726562 12.230469 49.082031 12.183594 48.433594 C 12.136719 47.789062 12.105469 47.140625 12.097656 46.492188 C 12.089844 45.84375 12.097656 45.195312 12.125 44.546875 C 12.15625 43.902344 12.203125 43.253906 12.269531 42.609375 C 12.335938 41.964844 12.421875 41.320312 12.527344 40.683594 C 12.628906 40.042969 12.753906 39.40625 12.894531 38.773438 C 13.035156 38.140625 13.195312 37.511719 13.375 36.890625 C 13.554688 36.265625 13.75 35.648438 13.964844 35.035156 C 14.179688 34.425781 14.414062 33.820312 14.664062 33.222656 C 14.914062 32.625 15.179688 32.035156 15.464844 31.453125 C 15.75 30.867188 16.054688 30.296875 16.371094 29.730469 C 16.691406 29.167969 17.027344 28.613281 17.375 28.066406 C 17.726562 27.523438 18.09375 26.988281 18.476562 26.464844 C 18.859375 25.941406 19.257812 25.429688 19.671875 24.929688 C 20.082031 24.429688 20.511719 23.941406 20.953125 23.464844 C 21.394531 22.992188 21.847656 22.53125 22.316406 22.082031 C 22.785156 21.632812 23.265625 21.199219 23.761719 20.78125 C 24.253906 20.359375 24.761719 19.953125 25.277344 19.5625 C 25.796875 19.175781 26.324219 18.800781 26.863281 18.441406 C 27.40625 18.082031 27.953125 17.738281 28.515625 17.410156 C 29.074219 17.085938 29.644531 16.773438 30.222656 16.480469 C 30.800781 16.1875 31.386719 15.910156 31.980469 15.652344 C 32.574219 15.394531 33.175781 15.152344 33.785156 14.925781 C 34.394531 14.703125 35.007812 14.5 35.628906 14.3125 C 36.25 14.121094 36.875 13.953125 37.503906 13.804688 C 38.136719 13.652344 38.769531 13.519531 39.40625 13.40625 C 40.046875 13.292969 40.6875 13.199219 41.332031 13.121094 C 41.976562 13.046875 42.621094 12.988281 43.269531 12.949219 C 43.914062 12.914062 44.5625 12.894531 45.210938 12.894531 C 45.859375 12.894531 46.507812 12.914062 47.15625 12.949219 C 47.800781 12.988281 48.449219 13.046875 49.089844 13.121094 C 49.734375 13.199219 50.375 13.292969 51.015625 13.40625 C 51.652344 13.519531 52.289062 13.652344 52.917969 13.804688 C 53.550781 13.953125 54.175781 14.121094 54.796875 14.3125 C 55.414062 14.5 56.03125 14.703125 56.640625 14.925781 C 57.246094 15.152344 57.847656 15.394531 58.441406 15.652344 C 59.039062 15.910156 59.625 16.1875 60.203125 16.480469 C 60.78125 16.773438 61.347656 17.085938 61.910156 17.410156 C 62.46875 17.738281 63.019531 18.082031 63.558594 18.441406 C 64.097656 18.800781 64.628906 19.175781 65.144531 19.5625 C 65.664062 19.953125 66.167969 20.359375 66.664062 20.78125 C 67.15625 21.199219 67.636719 21.632812 68.105469 22.082031 C 68.574219 22.53125 69.03125 22.992188 69.472656 23.464844 C 69.914062 23.941406 70.339844 24.429688 70.753906 24.929688 C 71.164062 25.429688 71.5625 25.941406 71.945312 26.464844 C 72.328125 26.988281 72.695312 27.523438 73.046875 28.066406 C 73.398438 28.613281 73.734375 29.167969 74.050781 29.730469 C 74.371094 30.296875 74.671875 30.867188 74.957031 31.453125 C 75.242188 32.035156 75.507812 32.625 75.761719 33.222656 C 76.011719 33.820312 76.242188 34.425781 76.457031 35.035156 C 76.671875 35.648438 76.871094 36.265625 77.046875 36.890625 C 77.226562 37.511719 77.386719 38.140625 77.527344 38.773438 C 77.671875 39.40625 77.792969 40.042969 77.898438 40.683594 C 78.003906 41.320312 78.085938 41.964844 78.152344 42.609375 C 78.21875 43.253906 78.269531 43.902344 78.296875 44.546875 C 78.324219 45.195312 78.335938 45.84375 78.324219 46.492188 C 78.316406 47.140625 78.289062 47.789062 78.242188 48.433594 C 78.191406 49.082031 78.125 49.726562 78.042969 50.367188 C 77.957031 51.011719 77.851562 51.652344 77.730469 52.289062 C 77.605469 52.925781 77.464844 53.558594 77.304688 54.183594 C 77.144531 54.8125 76.964844 55.4375 76.769531 56.054688 C 76.574219 56.671875 76.359375 57.285156 76.125 57.890625 C 75.894531 58.492188 75.644531 59.09375 75.375 59.683594 C 75.109375 60.273438 74.824219 60.855469 74.523438 61.429688 C 74.21875 62.003906 73.902344 62.566406 73.566406 63.121094 C 73.230469 63.675781 72.878906 64.222656 72.511719 64.757812 C 72.144531 65.292969 71.765625 65.816406 71.367188 66.328125 C 70.96875 66.839844 70.554688 67.339844 70.128906 67.828125 C 69.703125 68.3125 69.261719 68.789062 68.804688 69.25 C 68.351562 69.714844 67.882812 70.160156 67.402344 70.59375 C 66.921875 71.03125 66.425781 71.449219 65.921875 71.855469 C 65.414062 72.261719 64.898438 72.652344 64.367188 73.027344 C 63.839844 73.402344 63.300781 73.761719 62.75 74.105469 C 62.199219 74.445312 61.640625 74.773438 61.070312 75.085938 C 60.503906 75.394531 59.925781 75.6875 59.339844 75.964844 C 58.75 76.242188 58.15625 76.5 57.554688 76.742188 C 56.953125 76.984375 56.347656 77.207031 55.730469 77.414062 Z M 55.730469 77.421875 " fill-opacity="1" fill-rule="evenodd"/></g></svg>