<svg xmlns="http://www.w3.org/2000/svg" xmlns:xlink="http://www.w3.org/1999/xlink" width="120" zoomAndPan="magnify" viewBox="0 0 90 89.999999" height="120" preserveAspectRatio="xMidYMid meet" version="1.0"><defs><clipPath id="e04d51ad38"><path d="M 7.574219 7.574219 L 82.574219 7.574219 L 82.574219 82.574219 L 7.574219 82.574219 Z M 7.574219 7.574219 " clip-rule="nonzero"/></clipPath></defs><g clip-path="url(#e04d51ad38)"><path fill="#ff0000" d="M 76.308594 7.574219 L 13.878906 7.574219 C 10.425781 7.574219 7.648438 10.390625 7.648438 13.804688 L 7.648438 76.347656 C 7.648438 79.796875 10.464844 82.574219 13.878906 82.574219 L 76.273438 82.574219 C 79.722656 82.574219 82.5 79.761719 82.5 76.347656 L 82.5 13.804688 C 82.539062 10.390625 79.761719 7.574219 76.308594 7.574219 Z M 29.824219 69.445312 L 18.753906 69.445312 L 18.753906 36.203125 L 29.824219 36.203125 Z M 24.269531 32.1875 C 20.78125 32.1875 17.96875 29.375 17.96875 25.882812 C 17.96875 22.394531 20.78125 19.582031 24.269531 19.582031 C 27.761719 19.582031 30.574219 22.394531 30.574219 25.882812 C 30.574219 29.375 27.761719 32.1875 24.269531 32.1875 Z M 71.46875 69.445312 L 60.363281 69.445312 L 60.101562 49.707031 C 60.101562 49.707031 60.363281 44.457031 54.625 44.492188 C 48.882812 44.53125 48.09375 49.707031 48.09375 49.707031 L 48.09375 69.445312 L 36.914062 69.445312 L 36.914062 36.203125 L 47.644531 36.203125 L 47.644531 40.777344 C 47.644531 40.777344 48.09375 39.277344 50.570312 37.515625 C 53.046875 35.75 57.136719 35.375 58.902344 35.453125 C 60.664062 35.527344 63.066406 35.226562 67.078125 38.003906 C 71.394531 40.964844 71.507812 48.734375 71.507812 48.734375 Z M 71.46875 69.445312 " fill-opacity="1" fill-rule="nonzero"/></g></svg>